<svg width="24" height="25" viewBox="0 0 24 25" fill="none" xmlns="http://www.w3.org/2000/svg">
<path d="M20.2841 6.95283H16.888L13.3201 0.73421C13.1431 0.425303 12.7592 0.324446 12.4625 0.510187C12.1665 0.695927 12.0707 1.09737 12.2483 1.40694L15.4303 6.95283H5.13806L8.32005 1.4069C8.49766 1.09733 8.40185 0.695883 8.10582 0.510143C7.80857 0.324402 7.42591 0.425259 7.24829 0.734166L3.68035 6.95279H0.28418V8.25996H1.64069L3.2285 17.1172C3.39451 18.0446 4.16965 18.7173 5.07178 18.7173H15.4966C16.3987 18.7173 17.1738 18.0446 17.3392 17.1178L18.9276 8.25996H20.2842C20.2841 8.25996 20.2841 6.95283 20.2841 6.95283ZM16.1106 16.8772C16.0556 17.1861 15.7974 17.4102 15.4965 17.4102H5.07178C4.77088 17.4102 4.51272 17.1862 4.45718 16.8766L2.91207 8.25996H17.6563L16.1106 16.8772Z" fill="white"/>
<ellipse cx="17.0943" cy="18.7173" rx="6.1898" ry="6.10012" fill="#F14F4F"/>
<path d="M15.9336 17.1212V16.4172L17.8536 15.9372V21.6172H17.1736V16.7532L15.9336 17.1212Z" fill="white"/>
</svg>
