<svg width="48" height="48" viewBox="0 0 48 48" fill="none" xmlns="http://www.w3.org/2000/svg">
<rect width="48" height="48" rx="4" fill="#F14F4F"/>
<path d="M36 20.8571H31.9246L27.6431 13.3813C27.4307 13.01 26.97 12.8887 26.614 13.112C26.2588 13.3353 26.1438 13.8179 26.357 14.1901L30.1753 20.8571H17.8247L21.643 14.19C21.8562 13.8179 21.7412 13.3353 21.386 13.112C21.0293 12.8887 20.5701 13.0099 20.3569 13.3813L16.0754 20.8571H12V22.4285H13.6278L15.5332 33.0764C15.7324 34.1913 16.6626 35 17.7451 35H30.2549C31.3374 35 32.2676 34.1913 32.4661 33.0771L34.3721 22.4285H36C36 22.4285 36 20.8571 36 20.8571ZM30.9916 32.7879C30.9258 33.1592 30.6159 33.4286 30.2548 33.4286H17.7451C17.384 33.4286 17.0742 33.1593 17.0076 32.7872L15.1535 22.4285H32.8465L30.9916 32.7879Z" fill="white"/>
</svg>
